<?xml version="1.0" encoding="utf-8"?>
<svg xmlns="http://www.w3.org/2000/svg" viewBox="7.4811 4.0109 24.7569 30.0598" width="24.7569px" height="30.0598px">
    <defs>
        <linearGradient id="paint0_linear" x1="0" y1="0" x2="1" y2="1" gradientUnits="objectBoundingBox">
            <stop offset="0.1594" stop-color="#3BEA62"/>
            <stop offset="0.5404" stop-color="#3C99CC"/>
            <stop offset="0.9374" stop-color="#6B57FF"/>
        </linearGradient>
    </defs>
    <path d="M 17.617 34.008 C 17.188 33.969 16.342 33.82 15.938 33.712 C 15.447 33.579 14.712 33.346 14.589 33.261 C 14.437 33.16 14.54 33.086 14.827 33.086 C 15.551 33.086 17.318 32.743 18.239 32.429 C 20.188 31.74 22.34 30.513 23.568 29.167 C 24.872 27.738 25.683 26.371 26.262 24.648 C 26.439 24.121 26.46 24.038 26.606 23.32 C 26.797 22.425 26.93 22.093 27.297 21.641 C 27.601 21.236 27.945 20.936 29.299 19.852 C 30.529 18.865 31.247 18.169 31.624 17.578 C 31.72 17.43 31.817 17.297 31.84 17.283 C 31.915 17.234 31.987 17.355 32.066 17.676 C 32.22 18.338 32.238 18.543 32.238 19.727 C 32.238 20.713 32.224 20.971 32.148 21.523 C 31.735 24.361 30.723 26.667 28.998 28.867 C 27.423 30.826 24.968 32.528 22.652 33.411 C 21.225 33.913 20.106 34.104 18.668 34.066 L 17.617 34.008 Z M 10.042 32.732 C 8.576 32.349 7.69 31.003 7.5 29.297 C 7.43 28.624 7.567 25.465 7.707 24.16 C 7.914 22.271 8.297 20.384 8.77 18.843 C 9.663 16.091 11.405 12.834 13.316 10.549 C 14.563 9.06 16.299 7.509 17.832 6.457 C 18.893 5.808 20.301 4.986 21.5 4.551 C 21.658 4.495 21.866 4.414 21.969 4.373 C 22.073 4.332 22.35 4.247 22.589 4.18 C 23.397 3.968 23.758 3.869 23.947 4.415 C 23.993 4.579 24.019 4.623 24.02 4.981 C 23.99 5.56 23.825 5.975 23.376 6.57 C 23.169 6.847 22.886 7.156 21.256 8.804 C 19.195 11.003 18.066 12.586 16.918 14.888 C 16.149 16.427 15.577 18.051 15.1 19.785 C 14.785 20.974 14.481 22.295 14.325 23.711 C 14.221 24.504 14.168 26.041 14.19 27.598 C 14.226 29.493 14.166 30.09 13.863 30.829 C 13.477 31.77 12.632 32.519 11.54 32.732 C 11.122 32.843 10.453 32.843 10.042 32.732 Z M 19.219 29.44 C 18.801 29.324 18.357 29.012 18.056 28.676 C 17.56 28.148 17.36 27.69 17.145 26.658 C 16.78 24.833 16.835 22.898 17.307 20.953 C 17.758 19.165 18.582 17.414 19.577 16.232 C 20.737 14.838 22.516 13.731 24.434 13.4 C 26.059 13.124 27.936 13.238 29.014 13.841 C 29.628 14.185 29.654 14.191 30.033 14.53 C 30.412 14.869 30.508 15.304 30.497 15.602 C 30.485 15.904 30.43 15.997 30.349 16.16 C 30.219 16.43 29.893 16.789 29.623 16.898 C 29.353 17.007 29.134 17.087 27.07 17.181 C 25.939 17.232 25.35 17.238 25.019 17.304 C 24.068 17.455 23.436 17.847 22.873 18.469 C 22.053 19.351 21.569 20.368 21.347 21.641 C 21.275 22.07 21.268 22.242 21.286 23.008 C 21.307 23.949 21.374 24.646 21.572 25.996 C 21.689 26.787 21.71 27.503 21.632 27.914 C 21.524 28.507 21.113 29.088 20.604 29.315 C 20.162 29.545 19.649 29.559 19.219 29.44 Z" fill="url(#paint0_linear)"/>
</svg>